<?xml version="1.0" standalone="no"?>
<!DOCTYPE svg PUBLIC "-//W3C//DTD SVG 20010904//EN"
 "http://www.w3.org/TR/2001/REC-SVG-20010904/DTD/svg10.dtd">
<svg version="1.0" xmlns="http://www.w3.org/2000/svg"
 width="1224.000000pt" height="1224.000000pt" viewBox="0 0 1224.000000 1224.000000"
 preserveAspectRatio="xMidYMid meet">
<metadata>
Created by potrace 1.14, written by Peter Selinger 2001-2017
</metadata>
<g transform="translate(0.000000,1224.000000) scale(0.100000,-0.100000)"
fill="#000000" stroke="none">
<path d="M7650 11310 c-54 -10 -123 -44 -159 -79 -17 -17 -29 -31 -26 -31 4 0
-2 -12 -13 -27 -26 -37 -36 -71 -33 -113 2 -44 29 -130 47 -151 8 -8 14 -20
14 -26 0 -6 7 -16 15 -23 9 -7 14 -15 11 -17 -5 -5 53 -62 97 -96 16 -12 34
-27 40 -33 7 -5 26 -19 44 -29 18 -10 29 -23 26 -28 -3 -6 -2 -7 4 -4 5 3 26
-5 46 -18 20 -14 41 -25 46 -25 6 0 11 -5 11 -11 0 -5 4 -8 9 -4 5 3 15 -1 23
-8 7 -7 15 -14 18 -14 16 -3 66 -29 72 -38 4 -5 8 -6 8 -1 0 5 9 1 21 -10 12
-10 23 -18 25 -17 7 4 79 -29 85 -39 3 -5 8 -9 10 -7 9 5 49 -13 49 -22 0 -6
4 -8 8 -5 5 3 25 -6 45 -19 20 -14 41 -25 46 -25 6 0 11 -5 11 -12 0 -6 3 -9
6 -5 4 3 12 1 20 -6 25 -22 40 -32 54 -35 8 -2 24 -12 35 -21 11 -10 30 -24
43 -30 12 -7 20 -17 16 -23 -4 -6 -3 -8 3 -5 5 4 19 -2 30 -12 10 -10 29 -24
41 -30 13 -7 20 -16 17 -22 -4 -5 -1 -8 7 -7 7 2 12 -3 11 -9 -2 -7 1 -12 6
-10 10 2 114 -102 153 -154 15 -20 24 -40 20 -44 -4 -3 -2 -5 3 -3 6 2 11 -1
12 -6 0 -5 8 -13 17 -18 9 -5 14 -13 11 -19 -4 -5 -1 -9 4 -9 6 0 11 -7 11
-15 0 -8 5 -15 10 -15 6 0 10 -5 10 -11 0 -6 9 -24 21 -40 11 -16 17 -29 12
-29 -4 0 -2 -4 5 -8 7 -5 14 -18 17 -30 2 -11 8 -29 14 -40 6 -11 7 -22 4 -26
-3 -3 -1 -6 5 -6 7 0 11 -3 10 -7 -1 -5 4 -21 10 -36 7 -16 10 -32 7 -37 -3
-5 -1 -11 4 -14 8 -5 21 -53 27 -96 1 -8 5 -35 9 -60 14 -80 0 -258 -23 -295
-4 -5 -7 -17 -9 -25 -1 -8 -6 -16 -12 -18 -5 -2 -7 -10 -4 -18 3 -8 0 -14 -6
-14 -6 0 -11 -3 -10 -7 2 -16 -14 -53 -22 -53 -5 0 -9 -7 -9 -15 0 -8 -9 -24
-20 -35 -11 -11 -17 -20 -12 -20 4 0 -1 -7 -11 -14 -10 -8 -18 -17 -17 -21 4
-18 -168 -202 -184 -197 -6 2 -8 1 -4 -3 24 -24 -224 -210 -428 -321 -38 -21
-72 -42 -75 -47 -3 -5 -9 -8 -13 -8 -3 1 -23 -6 -44 -15 -192 -82 -422 -163
-652 -228 -156 -44 -147 -44 -160 6 -29 116 -63 227 -80 266 -11 25 -20 55
-20 67 0 31 35 130 62 174 20 32 111 148 127 161 20 16 61 74 61 85 0 8 -10
25 -22 39 -26 29 -95 41 -248 41 -70 0 -94 -4 -135 -24 -27 -14 -56 -33 -63
-43 -7 -10 -17 -18 -23 -18 -10 0 -21 -9 -87 -71 -49 -46 -36 -46 -185 -1 -54
17 -101 30 -105 31 -123 18 -158 51 -252 238 -71 141 -149 256 -180 264 -37 8
-72 -5 -108 -40 -43 -43 -62 -105 -72 -236 -10 -129 -27 -215 -42 -215 -6 0
-9 -3 -5 -6 11 -12 -33 -83 -83 -135 -28 -28 -50 -48 -50 -43 0 4 -12 -7 -26
-24 -15 -18 -31 -32 -37 -32 -8 0 -22 -13 -107 -106 -51 -56 -97 -127 -158
-244 -33 -63 -65 -114 -72 -112 -6 1 -9 -2 -6 -7 3 -5 -4 -31 -16 -58 -12 -26
-20 -52 -20 -56 1 -4 -3 -17 -8 -28 -21 -37 -51 -172 -54 -236 -3 -59 3 -107
19 -160 6 -18 0 -25 -34 -42 -23 -12 -41 -18 -41 -15 0 4 -9 -1 -20 -11 -11
-10 -20 -15 -20 -11 0 8 -194 -94 -198 -105 -2 -5 -8 -7 -13 -3 -5 3 -9 0 -9
-6 0 -6 -4 -9 -9 -5 -6 3 -14 -3 -20 -12 -5 -10 -13 -17 -18 -16 -12 2 -63
-30 -63 -40 0 -4 -4 -6 -9 -3 -5 3 -14 -1 -21 -9 -7 -8 -18 -15 -26 -15 -7 0
-18 -8 -23 -17 -6 -10 -11 -13 -11 -8 0 7 -3 7 -8 0 -8 -12 -69 -55 -76 -55
-6 0 -37 -24 -61 -47 -7 -7 -15 -10 -17 -8 -3 3 -15 -6 -28 -20 -13 -14 -27
-25 -32 -25 -7 0 -35 -21 -64 -48 -8 -7 -14 -11 -14 -8 0 3 -31 -25 -70 -63
-38 -38 -70 -74 -70 -80 0 -5 -10 -17 -22 -26 -13 -8 -23 -19 -23 -23 0 -8
-34 -7 -170 2 -121 8 -594 10 -625 2 -14 -3 -54 -9 -90 -12 -58 -6 -72 -3
-115 19 -84 42 -146 58 -236 61 -47 2 -95 6 -106 10 -12 4 -38 34 -59 67 -36
56 -45 63 -131 104 -95 46 -133 83 -133 131 0 11 -7 41 -15 65 -35 103 -133
172 -245 173 -62 1 -160 -28 -160 -46 0 -5 -6 -8 -14 -8 -19 0 -71 -60 -97
-113 -29 -56 -31 -156 -4 -218 60 -140 210 -205 365 -159 31 9 66 15 78 13 36
-5 95 -47 153 -108 l29 -30 -32 -14 c-18 -7 -42 -14 -53 -16 -39 -5 -115 -27
-115 -34 0 -3 -24 -7 -53 -8 -41 -2 -65 4 -112 27 -33 17 -73 31 -90 32 -39 3
-117 -11 -132 -24 -7 -6 -13 -7 -13 -3 0 5 -8 1 -17 -8 -10 -8 -22 -15 -26
-15 -24 1 -78 -65 -100 -120 -34 -85 -11 -204 52 -270 31 -32 100 -74 111 -67
5 3 12 0 15 -6 15 -23 215 8 215 33 0 4 6 8 13 8 15 0 63 52 81 89 15 28 31
91 28 104 -2 5 2 6 8 2 5 -3 10 -2 10 4 0 10 50 41 80 49 52 14 290 -8 290
-27 0 -4 10 -7 22 -7 27 1 123 -128 140 -188 16 -58 13 -78 -18 -103 -36 -28
-65 -33 -106 -16 -18 8 -62 15 -98 15 -155 2 -280 -120 -280 -273 0 -48 33
-136 64 -171 82 -93 230 -120 343 -62 71 37 111 86 138 172 26 78 50 99 153
132 122 39 136 54 147 151 9 81 67 178 124 206 31 16 55 21 80 17 73 -11 98
-13 186 -14 84 -1 104 1 180 14 17 3 57 8 90 11 33 3 69 7 80 8 19 2 20 -5 23
-103 2 -104 8 -195 11 -195 1 0 4 -12 6 -27 2 -16 7 -38 11 -50 5 -13 9 -25 9
-28 11 -44 28 -90 35 -95 5 -3 7 -12 3 -20 -3 -8 0 -15 6 -15 6 0 10 -3 9 -7
-2 -15 43 -103 53 -103 6 0 8 -4 5 -8 -3 -5 4 -19 15 -30 11 -12 17 -22 14
-22 -4 0 0 -6 7 -14 7 -8 29 -34 48 -57 19 -24 59 -66 88 -95 28 -28 52 -55
52 -59 0 -4 54 -60 120 -125 66 -65 120 -126 120 -135 0 -9 -4 -14 -9 -10 -5
3 -19 -7 -30 -21 -12 -15 -21 -24 -21 -21 0 4 -19 -12 -42 -33 -23 -22 -45
-40 -50 -40 -5 0 -6 -4 -3 -10 3 -5 -1 -10 -10 -10 -9 0 -13 -4 -10 -10 3 -5
-1 -10 -9 -10 -9 0 -16 -5 -16 -10 0 -9 -27 -43 -66 -84 -22 -24 -94 -126 -89
-126 4 0 -1 -7 -10 -16 -18 -19 -90 -155 -87 -166 1 -5 -3 -8 -9 -8 -5 0 -7
-4 -4 -10 3 -5 2 -10 -3 -10 -5 0 -9 -6 -10 -12 -2 -22 -7 -43 -14 -54 -4 -6
-9 -21 -11 -35 -3 -13 -10 -42 -15 -64 -30 -113 -46 -384 -29 -460 14 -60 6
-122 -14 -109 -5 3 -9 0 -9 -5 0 -6 -7 -11 -15 -11 -8 0 -15 -5 -15 -11 0 -5
-5 -7 -10 -4 -5 3 -10 2 -10 -3 0 -5 -15 -12 -33 -15 -18 -3 -51 -13 -73 -23
-21 -9 -42 -18 -46 -19 -5 -2 -11 -4 -15 -5 -5 -1 -11 -2 -14 -2 -4 1 -15 -8
-24 -18 -10 -11 -24 -20 -32 -20 -7 0 -13 -5 -13 -11 0 -5 -5 -7 -10 -4 -5 3
-10 1 -10 -5 0 -6 -4 -8 -10 -5 -5 3 -10 -1 -10 -10 0 -9 -4 -13 -10 -10 -5 3
-10 1 -10 -6 0 -6 -10 -20 -22 -30 -11 -11 -17 -19 -13 -19 4 0 0 -9 -10 -20
-10 -11 -15 -20 -10 -20 4 0 3 -6 -3 -12 -11 -14 -19 -53 -29 -128 -3 -25 -6
-56 -8 -70 -2 -14 -4 -25 -5 -25 0 0 -3 -20 -5 -45 -2 -25 -6 -65 -10 -90 -4
-25 -7 -51 -7 -57 -1 -7 -4 -13 -8 -13 -3 0 -6 -8 -7 -17 -1 -27 -10 -59 -22
-81 -6 -11 -8 -22 -5 -24 2 -3 -1 -18 -7 -34 -7 -16 -13 -38 -14 -50 -1 -12
-5 -30 -9 -40 -4 -10 -10 -30 -13 -44 -8 -42 -11 -55 -13 -55 -1 0 -3 -13 -6
-30 -5 -37 -12 -70 -14 -70 -1 0 -3 -9 -4 -20 -4 -33 -20 -111 -32 -157 -3
-13 -6 -29 -6 -35 -1 -7 -5 -13 -9 -13 -5 0 -6 -7 -3 -15 4 -8 1 -15 -6 -15
-7 0 -10 -6 -7 -14 3 -8 3 -17 -1 -21 -4 -4 -7 -10 -7 -13 -1 -4 -6 -17 -13
-29 -7 -13 -10 -23 -6 -23 3 0 -1 -11 -10 -25 -9 -14 -13 -25 -9 -25 5 0 0 -5
-10 -11 -9 -6 -15 -14 -12 -19 3 -5 -3 -24 -14 -43 -11 -19 -17 -38 -14 -41 4
-3 0 -6 -7 -6 -7 0 -10 -3 -7 -6 3 -4 1 -16 -5 -28 -7 -11 -13 -24 -14 -28 -1
-5 -3 -11 -4 -15 -1 -5 -2 -11 -1 -15 0 -5 -3 -8 -9 -8 -5 0 -7 -6 -4 -14 3
-8 0 -17 -5 -21 -6 -3 -9 -11 -6 -16 4 -5 2 -9 -4 -9 -6 0 -8 -7 -5 -15 4 -8
1 -15 -6 -15 -6 0 -8 -5 -5 -10 3 -5 1 -10 -5 -10 -7 0 -10 -6 -7 -14 3 -8 -1
-20 -8 -26 -8 -7 -13 -16 -10 -20 2 -3 -9 -22 -25 -41 -16 -19 -29 -39 -30
-46 0 -6 -9 -15 -21 -18 -11 -4 -18 -9 -15 -12 3 -3 -6 -17 -20 -30 -14 -12
-21 -23 -17 -23 4 0 0 -5 -9 -11 -10 -5 -18 -17 -18 -24 0 -8 -4 -15 -9 -15
-5 0 -21 -25 -35 -55 -55 -112 -35 -230 59 -349 30 -38 55 -65 55 -60 0 5 4 4
8 -2 27 -39 155 -60 210 -34 78 37 94 47 124 75 18 16 42 43 54 59 18 25 23
27 42 17 12 -6 22 -16 22 -21 0 -5 5 -21 12 -37 6 -15 11 -31 10 -35 -1 -3 5
-12 13 -18 8 -7 15 -18 15 -24 0 -6 15 -28 34 -48 19 -20 31 -39 28 -42 -3 -3
2 -6 12 -6 10 0 14 -5 10 -12 -4 -6 -3 -8 4 -4 6 3 16 1 24 -6 7 -7 27 -19 43
-27 17 -7 37 -17 45 -21 31 -14 144 -4 193 18 67 30 171 136 204 209 50 110
36 275 -34 403 -111 200 -112 204 -118 455 -3 134 -1 171 15 230 21 79 131
357 150 380 6 7 28 19 48 26 74 24 151 69 186 110 71 83 96 210 57 288 -18 34
-75 91 -116 116 -22 14 -15 39 25 84 16 18 42 48 57 67 24 31 30 34 62 28 20
-4 38 -10 41 -13 3 -3 14 -7 25 -8 11 -1 43 -5 70 -9 62 -9 235 -8 295 1 25 3
56 8 70 10 48 7 78 15 114 30 20 8 36 12 36 8 0 -4 5 -2 12 5 7 7 20 12 30 12
10 0 18 5 18 10 0 6 7 10 16 10 40 0 252 127 371 222 50 39 67 47 87 42 14 -3
26 -10 26 -15 0 -5 7 -9 15 -9 8 0 15 -5 15 -11 0 -5 5 -7 10 -4 6 3 13 -1 16
-9 3 -9 10 -14 14 -11 5 3 14 0 22 -7 7 -7 22 -15 33 -16 11 -2 22 -8 23 -13
2 -5 8 -7 13 -3 5 3 9 0 9 -6 0 -6 5 -8 10 -5 6 3 10 1 10 -5 0 -6 5 -8 10 -5
6 3 16 3 23 -2 6 -4 17 -9 22 -10 6 -1 28 -7 50 -13 115 -31 152 -35 315 -33
138 0 195 5 250 20 14 3 30 7 35 8 157 36 386 152 528 268 26 22 49 38 50 36
5 -6 36 -113 62 -207 53 -196 110 -305 179 -342 14 -7 23 -17 20 -22 -3 -5 -2
-8 3 -7 4 1 22 -4 38 -11 33 -14 29 -13 101 -33 124 -35 245 16 272 113 10 40
7 98 -9 148 -18 56 19 75 74 39 15 -9 31 -17 37 -17 5 0 10 -4 10 -9 0 -11 46
-20 120 -25 130 -9 223 86 214 217 -7 93 -70 174 -189 242 -27 16 -52 30 -53
31 -2 1 48 53 112 116 367 361 512 658 441 905 -30 103 -106 217 -233 347 -84
86 -150 136 -282 218 -257 157 -548 277 -683 280 -50 1 -117 -18 -117 -33 0
-6 -4 -8 -9 -5 -5 4 -21 -8 -35 -25 -14 -17 -26 -27 -27 -22 0 4 -4 0 -7 -10
-6 -15 -18 -7 -74 47 l-66 66 13 42 c16 52 46 129 55 143 4 6 10 21 13 35 4
14 46 67 95 117 103 105 151 188 178 309 15 71 16 175 0 249 -17 86 -17 101 3
119 10 10 29 42 41 71 17 42 31 60 64 79 22 13 77 52 121 85 78 60 80 61 86
37 14 -52 79 -86 122 -64 21 11 60 1 52 -13 -4 -5 1 -9 9 -9 8 0 18 -5 22 -12
5 -7 3 -8 -6 -3 -9 5 -11 4 -6 -4 4 -6 11 -9 16 -6 4 3 13 -2 20 -10 7 -8 16
-12 21 -9 5 3 9 1 9 -3 0 -5 23 -8 50 -7 41 1 50 -2 50 -16 0 -19 -43 -36 -48
-20 -11 30 -111 -4 -168 -58 -30 -28 -37 -44 -36 -77 1 -24 33 -85 45 -85 4 0
5 -5 2 -10 -4 -6 -3 -9 2 -8 4 1 22 -5 38 -13 87 -43 215 52 192 141 -8 33 44
50 65 22 7 -9 20 -18 28 -20 35 -7 43 -40 26 -117 -3 -11 -5 -30 -5 -41 -1
-13 -15 -31 -36 -45 -19 -13 -42 -38 -50 -56 -17 -35 -17 -91 0 -110 5 -7 15
-19 22 -27 6 -7 9 -17 5 -22 -4 -4 -2 -4 5 0 6 3 14 2 18 -4 4 -6 11 -8 16 -5
5 4 9 3 9 -2 0 -15 73 -13 121 2 34 11 54 26 72 53 48 71 44 131 -14 183 -40
36 -41 86 -4 159 37 73 45 158 18 197 -11 15 -34 55 -52 88 -22 42 -46 71 -81
95 -27 19 -49 40 -50 47 -1 39 -108 119 -210 159 -25 9 -61 35 -80 56 -42 47
-85 59 -196 54 -59 -3 -95 -11 -144 -32 -36 -15 -66 -32 -68 -36 -2 -4 -8 -8
-14 -8 -10 0 -40 -24 -84 -69 -13 -13 -24 -21 -24 -18 0 4 -12 -6 -27 -21 -16
-15 -41 -38 -57 -50 l-29 -22 -18 30 c-19 31 -87 85 -120 95 -39 13 -19 27 61
42 13 2 31 10 39 16 12 9 13 9 7 -1 -5 -9 -2 -10 16 -3 39 16 62 24 78 26 32
6 60 15 185 56 72 24 132 44 135 44 3 1 21 8 41 17 20 9 47 19 60 23 40 13
317 153 439 223 295 169 521 345 673 525 23 27 47 55 52 61 6 6 37 50 68 97
100 151 155 291 214 544 6 28 6 198 -1 243 -3 20 -8 60 -11 87 -12 111 -15
134 -35 210 -59 231 -260 636 -408 823 -102 129 -363 377 -577 547 -55 44 -53
43 -180 119 -163 97 -316 132 -465 106z m-2322 -4392 c-1 -57 3 -102 11 -115
6 -13 9 -23 6 -23 -14 0 -21 -3 -32 -12 -15 -12 -50 -18 -141 -21 -39 -2 -72
1 -72 5 0 11 28 65 44 86 42 56 163 169 183 172 2 0 2 -42 1 -92z m-38 -384
c195 -7 425 -15 537 -18 56 -1 105 -5 108 -8 4 -3 8 -25 10 -49 3 -24 7 -55 9
-69 3 -14 10 -56 16 -95 6 -38 15 -81 21 -94 10 -23 9 -24 -28 -17 -42 7 -57
9 -126 25 -46 11 -101 21 -142 27 -11 1 -20 3 -20 4 0 2 -9 4 -20 6 -11 2 -32
6 -47 9 -16 3 -39 7 -52 9 -20 3 -63 13 -96 21 -209 53 -324 119 -369 210 -22
46 -15 56 38 49 20 -3 92 -7 161 -10z"/>
</g>
</svg>
